<svg width="28" height="28" viewBox="0 0 28 28" fill="none" xmlns="http://www.w3.org/2000/svg">
<g filter="url(#filter0_d)">
<rect x="4" width="20" height="20" rx="10" fill="#1976D2"/>
<path d="M18.9469 11.2H15.298V14.8C15.298 15.46 14.7506 16 14.0816 16C13.4127 16 12.8653 15.46 12.8653 14.8V11.2H9.21633C8.54735 11.2 8 10.66 8 10C8 9.34 8.54735 8.8 9.21633 8.8H12.8653V5.2C12.8653 4.54 13.4127 4 14.0816 4C14.7506 4 15.298 4.54 15.298 5.2V8.8H18.9469C19.6159 8.8 20.1633 9.34 20.1633 10C20.1633 10.66 19.6159 11.2 18.9469 11.2Z" fill="#FFFBFB" fill-opacity="0.54"/>
</g>
<defs>
<filter id="filter0_d" x="0" y="0" width="28" height="28" filterUnits="userSpaceOnUse" color-interpolation-filters="sRGB">
<feFlood flood-opacity="0" result="BackgroundImageFix"/>
<feColorMatrix in="SourceAlpha" type="matrix" values="0 0 0 0 0 0 0 0 0 0 0 0 0 0 0 0 0 0 127 0"/>
<feOffset dy="4"/>
<feGaussianBlur stdDeviation="2"/>
<feColorMatrix type="matrix" values="0 0 0 0 0 0 0 0 0 0 0 0 0 0 0 0 0 0 0.25 0"/>
<feBlend mode="normal" in2="BackgroundImageFix" result="effect1_dropShadow"/>
<feBlend mode="normal" in="SourceGraphic" in2="effect1_dropShadow" result="shape"/>
</filter>
</defs>
</svg>
